<?xml version="1.0" encoding="UTF-8"?>
<svg id="b" data-name="Layer 2" xmlns="http://www.w3.org/2000/svg" width="905" height="399.72" xmlns:xlink="http://www.w3.org/1999/xlink" viewBox="0 0 905 399.72">
  <defs>
    <style>
      .e {
        fill: url(#d);
        stroke: #010101;
        stroke-miterlimit: 10;
        stroke-width: 5px;
      }
    </style>
    <radialGradient id="d" cx="542.9" cy="199.84" fx="542.9" fy="199.84" r="678.21" gradientTransform="translate(0 111.56) scale(1 .44)" gradientUnits="userSpaceOnUse">
      <stop offset="0" stop-color="#6abd45"/>
      <stop offset=".11" stop-color="#72c04f"/>
      <stop offset=".3" stop-color="#88ca6b"/>
      <stop offset=".54" stop-color="#adda98"/>
      <stop offset=".83" stop-color="#def0d6"/>
      <stop offset="1" stop-color="#fff"/>
    </radialGradient>
  </defs>
  <g id="c" data-name="Layer 1">
    <path class="e" d="M898.48,286.88l-37.47-8.88c-10.16-2.41-18.1-10.34-20.51-20.51l-8.88-37.47c-1.27-5.37-8.91-5.37-10.18,0l-8.88,37.47c-2.41,10.16-10.34,18.1-20.51,20.51l-26.72,6.33-26.72-6.33c-10.16-2.41-18.1-10.34-20.51-20.51l-8.88-37.47c-1.27-5.37-8.91-5.37-10.19,0l-8.88,37.47c-2.41,10.16-10.34,18.1-20.51,20.51l-23.17,5.49-23.17-5.49c-10.16-2.41-18.1-10.34-20.51-20.51l-8.88-37.47c-1.27-5.37-8.91-5.37-10.18,0l-8.88,37.47c-2.41,10.16-10.34,18.1-20.51,20.51l-31.51,7.47-71.43-98.31-102.35,33.26,65.14-89.16-75.87-105.02-118.53,38.16L113.93,2.89,2.85,66.62l-.34,128.07,110.74,64.33,107.33-61.59,107.62,35.29v124.03l123.22,40.04,71.43-98.31,31.51,7.47c10.16,2.41,18.1,10.34,20.51,20.51l8.88,37.47c1.27,5.37,8.91,5.37,10.18,0l8.88-37.47c2.41-10.16,10.34-18.1,20.51-20.51l23.17-5.49,23.17,5.49c10.16,2.41,18.1,10.34,20.51,20.51l8.88,37.47c1.27,5.37,8.91,5.37,10.19,0l8.88-37.47c2.41-10.16,10.34-18.1,20.51-20.51l26.72-6.33,26.72,6.33c10.16,2.41,18.1,10.34,20.51,20.51l8.88,37.47c1.27,5.37,8.91,5.37,10.18,0l8.88-37.47c2.41-10.16,10.34-18.1,20.51-20.51l37.47-8.88c5.37-1.27,5.37-8.91,0-10.19Z"/>
  </g>
</svg>