<?xml version="1.0" encoding="UTF-8"?>
<svg id="b" data-name="Layer 2" xmlns="http://www.w3.org/2000/svg" width="305.06" height="232.56" xmlns:xlink="http://www.w3.org/1999/xlink" viewBox="0 0 305.06 232.56">
  <defs>
    <style>
      .e {
        fill: url(#d);
      }

      .f {
        fill: #010101;
      }
    </style>
    <radialGradient id="d" cx="152.57" cy="114.84" fx="152.57" fy="114.84" r="223.46" gradientTransform="translate(0 -9.71) scale(1 1.08)" gradientUnits="userSpaceOnUse">
      <stop offset="0" stop-color="#5e499e"/>
      <stop offset=".21" stop-color="#604b9f"/>
      <stop offset=".36" stop-color="#6855a4"/>
      <stop offset=".49" stop-color="#7765ad"/>
      <stop offset=".61" stop-color="#8a7bb9"/>
      <stop offset=".73" stop-color="#a498c8"/>
      <stop offset=".84" stop-color="#c4bcdb"/>
      <stop offset=".95" stop-color="#e8e6f1"/>
      <stop offset="1" stop-color="#fff"/>
    </radialGradient>
  </defs>
  <g id="c" data-name="Layer 1">
    <g>
      <polygon class="e" points="209.1 1.93 302.57 113.67 228.4 226.65 78.4 227.75 2.57 115.88 94.21 2.77 209.1 1.93"/>
      <path class="f" d="M209.99,0c23.08,28.11,46.92,56.68,70.44,84.46,0,0,23.68,27.92,23.68,27.92l.95,1.12s-.81,1.27-.81,1.27c-24.55,38.15-49.81,78.04-73.02,116.89-44.58-.18-107.6.23-152.79.88,0,0-2.69.03-2.69.03,0,0-1.3-2.13-1.3-2.13-17.55-28.51-36.36-57.37-54.83-85.29,0,0-18.75-28.11-18.75-28.11,0,0-.86-1.28-.86-1.28,0,0,.96-1.18.96-1.18l46.08-56.34C58.56,44.23,81.52,15.83,92.96,1.76c0,0,.48-.59.48-.59,0,0,.76,0,.76,0,32.86,0,83.31-.83,115.79-1.16h0ZM208.21,3.86c-31.81-.15-81.82.37-113.99.53,0,0,1.24-.6,1.24-.6-11.39,14.13-34.39,42.46-45.73,56.63,0,0-45.56,56.76-45.56,56.76,0,0,.1-2.46.1-2.46,0,0,19.17,27.83,19.17,27.83,19.09,27.49,38.93,55.66,58.91,82.52,0,0-4-2.1-4-2.1,44.27-.34,106.38-.22,150-1.32,0,0-4.14,2.26-4.14,2.26,25.85-35.99,51.91-74.45,76.67-111.34,0,0,.14,2.39.14,2.39,0,0-23.05-27.95-23.05-27.95-22.9-27.65-46.5-55.92-69.77-83.15h0Z"/>
    </g>
  </g>
</svg>