<?xml version="1.0" encoding="UTF-8"?>
<svg id="b" data-name="Layer 2" xmlns="http://www.w3.org/2000/svg" width="154.86" height="154.86" xmlns:xlink="http://www.w3.org/1999/xlink" viewBox="0 0 154.86 154.86">
  <defs>
    <style>
      .e {
        fill: url(#d);
        stroke: #010101;
        stroke-miterlimit: 10;
        stroke-width: 5px;
      }
    </style>
    <radialGradient id="d" cx="673.22" cy="-1407.62" fx="673.22" fy="-1407.62" r="123.56" gradientTransform="translate(-1427.75 678.45) rotate(44.12) scale(1 1.05)" gradientUnits="userSpaceOnUse">
      <stop offset="0" stop-color="#568444"/>
      <stop offset=".28" stop-color="#578545"/>
      <stop offset=".38" stop-color="#5d894c"/>
      <stop offset=".45" stop-color="#689158"/>
      <stop offset=".5" stop-color="#779c69"/>
      <stop offset=".55" stop-color="#8bab7f"/>
      <stop offset=".6" stop-color="#a4bc9a"/>
      <stop offset=".64" stop-color="#c1d2ba"/>
      <stop offset=".67" stop-color="#e2eadf"/>
      <stop offset=".7" stop-color="#fff"/>
    </radialGradient>
  </defs>
  <g id="c" data-name="Layer 1">
    <path class="e" d="M72.41,148.39l-8.76-36.95c-2.38-10.02-10.2-17.85-20.23-20.23l-36.95-8.76c-5.3-1.25-5.3-8.79,0-10.05l36.95-8.76c10.02-2.38,17.85-10.2,20.23-20.23l8.76-36.95c1.25-5.3,8.79-5.3,10.05,0l8.76,36.95c2.38,10.02,10.2,17.85,20.23,20.23l36.95,8.76c5.3,1.25,5.3,8.79,0,10.05l-36.95,8.76c-10.02,2.38-17.85,10.2-20.23,20.23l-8.76,36.95c-1.25,5.3-8.79,5.3-10.05,0Z"/>
  </g>
</svg>